<?xml version="1.0" standalone="no"?>
<!DOCTYPE svg PUBLIC "-//W3C//DTD SVG 1.1//EN" "http://www.w3.org/Graphics/SVG/1.1/DTD/svg11.dtd" >
<svg xmlns="http://www.w3.org/2000/svg">
<metadata></metadata>
<defs>
<font id="gill_sans_display_mt_extroman" horiz-adv-x="1366" >
<font-face units-per-em="2048" ascent="1638" descent="-410" />
<missing-glyph horiz-adv-x="694" />
<glyph horiz-adv-x="2048" />
<glyph horiz-adv-x="2048" />
<glyph unicode="&#xd;" horiz-adv-x="694" />
<glyph unicode=" "  horiz-adv-x="694" />
<glyph unicode="&#x09;" horiz-adv-x="694" />
<glyph unicode="&#xa0;" horiz-adv-x="694" />
<glyph unicode="!" horiz-adv-x="651" d="M66 242q0 73 43 146t147 104q-68 134 -108.5 242t-58 194.5t-17.5 161.5q0 145 62 246.5t179 101.5q79 0 140 -46t94 -129.5t33 -187.5q0 -101 -28 -202.5t-66 -187.5t-93 -193q78 -24 121 -71.5t57.5 -96t14.5 -82.5q0 -64 -31.5 -124t-90.5 -97t-138 -37 q-107 0 -183.5 74.5t-76.5 183.5z" />
<glyph unicode="&#x22;" horiz-adv-x="1024" d="M49 1178v241h406v-241l-66 -297h-274zM569 1178v241h406v-241l-64 -297h-276z" />
<glyph unicode="#" d="M68 315v244h198l49 246h-247v244h294l82 364h244l-80 -364h299l78 364h246l-80 -364h147v-244h-192l-51 -246h243v-244h-290l-80 -362h-246l82 362h-305l-76 -362h-246l78 362h-147zM510 559h299l51 246h-299z" />
<glyph unicode="$" horiz-adv-x="1194" d="M84 78v358q141 -75 251.5 -116t231.5 -41q76 0 134.5 22t58.5 86q0 56 -48.5 86.5t-170.5 71.5q-102 36 -170 64.5t-115.5 60t-85.5 75.5q-86 104 -86 240q0 106 54 194t151.5 142.5t218.5 60.5v95h176v-95q119 -14 197 -42t163 -87v-352q-109 88 -227.5 150.5 t-247.5 62.5q-66 0 -98.5 -27.5t-32.5 -60.5q0 -38 29 -65.5t87.5 -52t158.5 -58.5q108 -36 193 -80.5t151.5 -132t66.5 -221.5q0 -95 -46 -182.5t-124 -147.5q-61 -46 -132 -66.5t-138 -29.5v-178h-176v170q-34 2 -103 10t-155 28.5t-166 57.5z" />
<glyph unicode="%" horiz-adv-x="2126" d="M31 1065q0 86 46.5 172t143.5 143.5t244 57.5q140 0 239 -52.5t149 -137.5t50 -183q0 -97 -51 -184.5t-150 -140t-237 -52.5q-135 0 -233 51.5t-149.5 137t-51.5 188.5zM336 1061q0 -87 38.5 -122.5t90.5 -35.5q63 0 98 41t35 123q0 96 -45.5 127t-85.5 31 q-39 0 -85 -31.5t-46 -132.5zM477 -16l834 1454h338l-832 -1454h-340zM1223 369q0 85 45.5 171t143.5 143.5t245 57.5q109 0 191 -31t136.5 -83t82.5 -118t28 -140q0 -97 -51 -184.5t-150 -140t-237 -52.5q-135 0 -233 51.5t-149.5 137t-51.5 188.5zM1528 365 q0 -87 38.5 -122.5t90.5 -35.5q63 0 98 41t35 123q0 95 -45.5 126t-85.5 31q-39 0 -85 -31.5t-46 -131.5z" />
<glyph unicode="&#x26;" horiz-adv-x="1626" d="M68 348q0 97 37.5 165t90.5 111t142 99q-65 74 -106.5 144t-41.5 169q0 92 55 185t170.5 155t282.5 62q160 0 259 -55.5t142.5 -134.5t43.5 -156q0 -129 -73 -205t-183 -142l147 -151q77 91 113 145h385q-60 -100 -136.5 -194t-146.5 -160q119 -86 215 -86q57 0 101 27 l24 -19q-89 -124 -188.5 -223.5t-196.5 -99.5q-124 0 -260 139q-100 -70 -192 -104.5t-228 -34.5q-149 0 -252.5 49.5t-153.5 132.5t-50 182zM440 381q0 -43 40 -81t95 -38q66 0 158 68l-207 190q-47 -36 -66.5 -66.5t-19.5 -72.5zM592 1100q0 -20 9.5 -41.5t30.5 -46.5 t68 -74q62 35 93.5 65t31.5 80q0 40 -29.5 73.5t-93.5 33.5q-50 0 -80 -26.5t-30 -63.5z" />
<glyph unicode="'" horiz-adv-x="575" d="M84 1178v241h405v-241l-65 -297h-274z" />
<glyph unicode="(" horiz-adv-x="977" d="M66 461q0 167 53 316t139.5 272.5t174.5 211t198 177.5h309q-156 -187 -244.5 -324.5t-138 -296t-49.5 -358.5q0 -123 19.5 -226.5t59 -195t105.5 -199.5q61 -98 119 -177t129 -155h-322q-99 86 -183.5 170t-170.5 203t-142 268t-56 314z" />
<glyph unicode=")" horiz-adv-x="977" d="M37 -494q122 147 193.5 247.5t126.5 213.5t83.5 239.5t28.5 278.5q0 123 -19.5 226.5t-59 195t-105.5 199.5q-55 90 -118 176t-130 156h321q93 -79 185 -170.5t173.5 -205t138 -263.5t56.5 -316q0 -218 -87.5 -404t-208 -318t-269.5 -255h-309z" />
<glyph unicode="*" horiz-adv-x="1300" d="M86 909q0 39 18.5 111.5t47 125t59.5 52.5q30 0 104.5 -51t124.5 -92l121 -97q17 16 33 25l-88 238q-4 11 -14.5 41t-19.5 61t-9 49q0 42 61.5 54t134.5 12q93 0 140 -21q30 -13 30 -45q0 -34 -19.5 -100.5t-37.5 -108.5l-74 -180q22 -9 39 -25l156 132q79 67 119.5 93.5 t64.5 26.5q37 0 68.5 -60.5t50 -136.5t18.5 -104q0 -40 -27.5 -51.5t-105.5 -11.5h-49l-110 2l-150 6q-5 -25 -14 -41l121 -72q231 -139 231 -190q0 -32 -51 -82.5t-118 -90.5t-103 -40q-27 0 -41 31q-35 69 -82 239l-39 142q-20 -4 -25 -4q-4 0 -24 4l-33 -142 q-15 -64 -39 -143q-21 -67 -38 -97t-48 -30q-24 0 -90.5 39t-121 87t-54.5 77q0 41 65 88q10 6 62 43t71 49l140 92q-8 13 -15 41l-213 -14q-74 -4 -112 -4q-64 0 -89.5 11.5t-25.5 61.5z" />
<glyph unicode="+" d="M115 567v285h426v426h284v-426h426v-285h-426v-426h-284v426h-426z" />
<glyph unicode="," horiz-adv-x="715" d="M16 -344q233 107 263 315q-71 22 -119 66q-82 74 -82 188q0 73 37 131t97.5 89.5t129.5 31.5q64 0 119 -23.5t98 -68.5t66.5 -108.5t23.5 -139.5q0 -86 -34 -174t-106 -164.5t-184 -123.5t-260 -47q-32 0 -49 1v27z" />
<glyph unicode="-" horiz-adv-x="911" d="M55 377v371h801v-371h-801z" />
<glyph unicode="." horiz-adv-x="651" d="M68 242q0 70 35 129.5t95 94t128 34.5q107 0 182.5 -74.5t75.5 -183.5q0 -108 -76 -183t-182 -75q-68 0 -128 34.5t-95 94t-35 129.5z" />
<glyph unicode="/" horiz-adv-x="1024" d="M141 -16l471 1454h271l-471 -1454h-271z" />
<glyph unicode="0" horiz-adv-x="1563" d="M63 715q0 122 41.5 248.5t128.5 234.5t225 174t320 66q227 0 390.5 -100.5t247 -267t83.5 -355.5q0 -144 -47.5 -276.5t-139 -234.5t-228 -162t-306.5 -60q-219 0 -383 101t-248 269t-84 363zM539 705q0 -221 84.5 -285t156.5 -64q89 0 166.5 77.5t77.5 283.5 q0 142 -44 218.5t-99.5 102t-98.5 25.5q-55 0 -108 -32.5t-84 -84.5q-51 -90 -51 -241z" />
<glyph unicode="1" horiz-adv-x="954" d="M84 729v391q79 49 215.5 159.5t189.5 158.5h299v-1438h-475v891q-18 -13 -94.5 -70t-134.5 -92z" />
<glyph unicode="2" horiz-adv-x="1192" d="M43 0q138 159 244 289.5t170.5 227t98.5 182t34 159.5q0 60 -30.5 107t-80 72.5t-104.5 25.5q-142 0 -266 -174v371q100 90 200 134t232 44q153 0 261 -62.5t162 -167.5t54 -231q0 -90 -23 -173.5t-64 -163.5t-94.5 -153t-117.5 -143h428v-344h-1104z" />
<glyph unicode="3" horiz-adv-x="989" d="M53 88v340q118 -111 252 -111q68 0 111 38t43 96q0 33 -19 63t-58.5 50t-96.5 20q-45 0 -123 -19v309q44 -4 76 -4q132 0 170 46.5t38 89.5q0 30 -17 61t-53.5 51.5t-86.5 20.5q-128 0 -236 -129v340q144 88 353 88q118 0 211.5 -32t157.5 -88.5t96 -129t32 -152.5 q0 -113 -45.5 -176.5t-126.5 -122.5q89 -49 134.5 -117.5t56 -121.5t10.5 -95q0 -55 -21.5 -126t-72.5 -137.5t-146.5 -112t-234.5 -45.5q-234 0 -404 106z" />
<glyph unicode="4" horiz-adv-x="1518" d="M51 291v260l774 887h369v-854h272v-293h-272v-291h-475v291h-668zM410 584h309v350z" />
<glyph unicode="5" horiz-adv-x="1085" d="M68 49v340q17 -9 50.5 -22.5t68 -21t83.5 -7.5q90 0 140 37q25 17 41 46t16 66q0 71 -59 116.5t-158 45.5q-63 0 -125 -24l201 794h702v-325h-326l-63 -258q60 -11 114 -32.5t105 -74.5q60 -63 84.5 -143.5t24.5 -147.5q0 -85 -42.5 -189.5t-160.5 -185.5t-324 -81 q-123 0 -203.5 18t-168.5 49z" />
<glyph unicode="6" horiz-adv-x="1311" d="M61 565q0 137 53.5 276t155 261.5t242.5 210.5t311 125l387 -238q-87 -26 -151.5 -52.5t-138 -69t-144.5 -101.5q105 -2 216 -51t185 -152.5t74 -259.5q0 -123 -59.5 -245.5t-189.5 -204.5t-330 -82q-155 0 -271 50.5t-192 135.5t-112 188.5t-36 208.5zM504 512 q0 -63 47.5 -109.5t114.5 -46.5q40 0 75.5 21t58.5 58t23 83q0 72 -49 117t-112 45q-60 0 -109 -45t-49 -123z" />
<glyph unicode="7" horiz-adv-x="1253" d="M94 1071v348h1219l-672 -1419h-524l508 1071h-531z" />
<glyph unicode="8" horiz-adv-x="1237" d="M63 412q0 78 39.5 168.5t155.5 152.5q-66 56 -112 118.5t-46 164.5q0 99 58 197t177.5 161.5t293.5 63.5q162 0 279 -63t176 -161.5t59 -197.5q0 -86 -40.5 -156.5t-115.5 -126.5q189 -113 189 -321q0 -64 -26 -136.5t-88.5 -139.5t-171.5 -110.5t-267 -43.5 q-191 0 -317 64t-184.5 162t-58.5 204zM465 438q0 -70 48.5 -112.5t109.5 -42.5q63 0 107 47t44 110q0 67 -44.5 110.5t-108.5 43.5q-65 0 -110.5 -45.5t-45.5 -110.5zM481 1034q0 -56 38.5 -98.5t101.5 -42.5t102 44t39 97q0 59 -43 99.5t-98 40.5q-56 0 -98 -39t-42 -101z " />
<glyph unicode="9" horiz-adv-x="1305" d="M59 248v8q109 30 221 86t207 150q-148 24 -244.5 101t-140 173.5t-43.5 185.5q0 67 30.5 151t98 160.5t182 125.5t273.5 49q150 0 266 -49.5t189 -130t109 -178.5t36 -199q0 -159 -62.5 -297.5t-166.5 -253t-228 -201t-251 -147.5zM487 942q0 -65 45 -113.5t109 -48.5 q62 0 111 43.5t49 114.5q0 66 -44 115t-112 49q-66 0 -112 -47t-46 -113z" />
<glyph unicode=":" horiz-adv-x="651" d="M68 242q0 70 35 129.5t95 94t128 34.5q107 0 182.5 -74.5t75.5 -183.5q0 -108 -76 -183t-182 -75q-68 0 -128 34.5t-95 94t-35 129.5zM68 870q0 109 75.5 183.5t182.5 74.5q70 0 129.5 -34t94 -93.5t34.5 -130.5q0 -109 -75.5 -183.5t-182.5 -74.5q-68 0 -128 34.5 t-95 94t-35 129.5z" />
<glyph unicode=";" horiz-adv-x="715" d="M16 -344q233 107 263 315q-71 22 -119 66q-82 74 -82 188q0 73 37 131t97.5 89.5t129.5 31.5q64 0 119 -23.5t98 -68.5t66.5 -108.5t23.5 -139.5q0 -86 -34 -174t-106 -164.5t-184 -123.5t-260 -47q-32 0 -49 1v27zM98 870q0 70 34.5 129.5t94.5 94t129 34.5 q70 0 129 -34t94 -93.5t35 -130.5t-34.5 -130t-94 -93.5t-129.5 -34.5q-69 0 -129 34.5t-94.5 94t-34.5 129.5z" />
<glyph unicode="&#x3c;" d="M115 582v258l1136 469v-308l-745 -290l745 -291v-307z" />
<glyph unicode="=" d="M115 326v284h1136v-284h-1136zM115 811v285h1136v-285h-1136z" />
<glyph unicode="&#x3e;" d="M115 113v307l745 291l-745 290v308l1136 -469v-258z" />
<glyph unicode="?" horiz-adv-x="803" d="M33 1018l131 385q94 23 124 29t81 6q168 0 269 -91t101 -229q0 -141 -98 -254q-84 -98 -108.5 -127t-48.5 -64t-34 -62t-10 -58q0 -49 37 -82q67 -21 110 -61t60 -85.5t17 -88.5q0 -66 -33.5 -124.5t-93 -93t-131.5 -34.5t-130.5 33.5t-92 91t-33.5 129.5q0 97 67 172 q39 43 98 67q-29 52 -42 83.5t-13 78.5q0 56 31 133q22 55 28.5 77t6.5 50q0 71 -51.5 106t-112.5 35q-48 0 -129 -22z" />
<glyph unicode="@" horiz-adv-x="2048" d="M82 426q0 256 112.5 488.5t345 378t568.5 145.5q200 0 359.5 -60t268.5 -166t165.5 -245t56.5 -295q0 -139 -49 -270t-137.5 -234t-209 -163t-259.5 -60q-95 0 -134.5 31t-52.5 83q-31 -28 -61.5 -50.5t-86 -43t-126.5 -20.5q-107 0 -194 51t-138 148.5t-51 228.5 q0 103 35.5 218.5t106 216t171 160.5t225.5 60q182 0 267 -135l24 111h264l-151 -717q-15 -68 -15 -88q0 -49 41 -49q40 0 99 39t116 109t95.5 168.5t38.5 209.5q0 96 -33.5 195.5t-111.5 187t-211 142t-318 54.5q-246 0 -413.5 -86.5t-259 -217.5t-128.5 -272.5t-37 -262.5 q0 -180 81.5 -343.5t271.5 -269.5t493 -106q209 0 352 45.5t216 103t120 117.5h213q-61 -123 -155.5 -209.5t-211.5 -138.5t-249 -76t-269 -24q-289 0 -526 92q-134 52 -233.5 140.5t-162 199t-92.5 231.5t-30 248zM717 360q0 -119 54.5 -175t125.5 -56q107 0 176.5 85 t102 200.5t32.5 203.5q0 69 -36 150.5t-148 81.5q-103 0 -172 -79.5t-102 -193t-33 -217.5z" />
<glyph unicode="A" horiz-adv-x="1757" d="M16 0l600 1419h527l598 -1419h-518l-80 219h-527l-84 -219h-516zM721 514h315l-155 438z" />
<glyph unicode="B" horiz-adv-x="1501" d="M119 0v1419h774q78 0 156 -13.5t151 -62.5q73 -48 113.5 -123.5t40.5 -156.5q0 -86 -33.5 -143.5t-73 -86.5t-84.5 -53q156 -58 218.5 -160t62.5 -212q0 -127 -55.5 -208.5t-102.5 -111.5q-53 -36 -106.5 -54.5t-127 -26t-180.5 -7.5h-753zM623 233h94q83 0 155 33 t72 156q0 190 -248 190h-73v-379zM623 846h73q84 0 123 20q84 49 84 146q0 76 -49 125q-30 31 -64.5 38t-93.5 7h-73v-336z" />
<glyph unicode="C" horiz-adv-x="1368" d="M55 702q0 115 40 242t130.5 239t246.5 183.5t372 71.5q161 0 270 -28.5t193 -66.5v-423q-81 58 -174 98.5t-213 40.5q-102 0 -174.5 -35t-112.5 -88.5t-57 -112t-17 -108.5q0 -99 48 -178.5t135 -124.5t202 -45q117 0 209 36.5t166 83.5v-387q-54 -26 -108.5 -47.5 t-108.5 -36t-122 -23.5t-146 -9q-183 0 -331 59t-248 162.5t-150 232.5t-50 264z" />
<glyph unicode="D" horiz-adv-x="1612" d="M119 0v1419h610q192 0 340.5 -44t267.5 -154q69 -63 118.5 -145t76.5 -178t27 -202q0 -97 -25 -192.5t-75 -182t-120 -153t-157 -105.5q-88 -38 -191 -50.5t-297 -12.5h-575zM623 344h69q91 0 154.5 15.5t111.5 66.5q44 46 70.5 109.5t26.5 169.5q0 185 -101 288 q-51 54 -119 70t-157 16h-55v-735z" />
<glyph unicode="E" horiz-adv-x="1212" d="M119 0v1419h1032v-319h-528v-221h497v-320h-497v-240h538v-319h-1042z" />
<glyph unicode="F" horiz-adv-x="1171" d="M119 0v1419h999v-319h-495v-221h479v-320h-479v-559h-504z" />
<glyph unicode="G" horiz-adv-x="1513" d="M55 698q0 141 45 259t116 201t159 142q103 68 222.5 103t307.5 35q163 0 273.5 -29t193.5 -66v-358q-71 45 -174.5 82t-210.5 37q-134 0 -230 -52.5t-144 -142.5t-48 -198q0 -78 32.5 -164.5t118 -149.5t232.5 -63q26 0 64 4v164h-146v303h529v-762q-228 -59 -535 -59 q-229 0 -388.5 69t-250.5 179.5t-128.5 232.5t-37.5 233z" />
<glyph unicode="H" horiz-adv-x="1757" d="M119 0v1419h504v-510h512v510h503v-1419h-503v535h-512v-535h-504z" />
<glyph unicode="I" horiz-adv-x="784" d="M141 0v1419h504v-1419h-504z" />
<glyph unicode="J" horiz-adv-x="811" d="M-111 -51q34 -4 50 -4q106 0 155 45.5t60.5 108t11.5 157.5v1163h504v-1356q0 -119 -16 -204.5t-68 -163.5q-124 -189 -375 -189q-48 0 -102 9z" />
<glyph unicode="K" horiz-adv-x="1708" d="M119 0v1419h504v-647l505 647h531l-531 -674l541 -745h-598l-448 662v-662h-504z" />
<glyph unicode="L" horiz-adv-x="1180" d="M119 0v1419h504v-1059h526v-360h-1030z" />
<glyph unicode="M" horiz-adv-x="1919" d="M119 0v1419h463l379 -489l382 489h457v-1419h-504v670l-335 -428l-338 436v-678h-504z" />
<glyph unicode="N" horiz-adv-x="1798" d="M119 0v1419h434l623 -674v674h503v-1419h-438l-618 670v-670h-504z" />
<glyph unicode="O" horiz-adv-x="1606" d="M55 711q0 179 82.5 346.5t253 274t412.5 106.5q177 0 316.5 -58.5t235 -159.5t145.5 -233t50 -276q0 -134 -45.5 -261.5t-138.5 -233.5t-235 -169t-328 -63q-172 0 -313.5 59t-238.5 161t-146.5 233.5t-49.5 273.5zM559 711q0 -82 26.5 -151t81.5 -111.5t136 -42.5 q120 0 182 88.5t62 216.5t-60 216.5t-184 88.5t-184 -89.5t-60 -215.5z" />
<glyph unicode="P" horiz-adv-x="1430" d="M119 0v1419h684q108 0 205 -17.5t188 -82.5q101 -73 138.5 -168.5t37.5 -187.5q0 -120 -56 -210.5t-139 -145.5t-163 -70q-124 -25 -258 -25h-133v-512h-504zM623 803h47q95 0 156 29t61 135q0 103 -57 131t-142 28h-65v-323z" />
<glyph unicode="Q" horiz-adv-x="1642" d="M55 707q0 131 45.5 259t139 236t238 172t335.5 64q250 0 425 -105.5t262 -272t87 -343.5q0 -116 -31 -211.5t-77.5 -165t-86 -109t-102.5 -94.5q100 -46 193.5 -82.5t185.5 -66.5l-373 -314q-322 115 -537 209.5t-373.5 209.5t-244.5 265t-86 349zM569 707 q0 -78 27 -147.5t84.5 -114t142.5 -44.5q117 0 183.5 91t66.5 219q0 138 -68.5 220.5t-185.5 82.5q-121 0 -185.5 -93t-64.5 -214z" />
<glyph unicode="R" horiz-adv-x="1571" d="M119 0v1419h688q164 0 260 -24t170 -78q147 -105 152 -309q0 -115 -62 -201.5t-164 -124.5q43 -16 93 -71t124 -214l187 -397h-500l-88 207q-62 146 -105.5 222.5t-79.5 111t-70.5 44t-100.5 13.5v-598h-504zM623 831h43q55 0 105 9.5t91 48.5t41 119q0 112 -65.5 143 t-155.5 31h-59v-351z" />
<glyph unicode="S" horiz-adv-x="1085" d="M55 80v381q170 -117 328 -117q84 0 116.5 28t32.5 60q0 42 -46 78.5t-195 124.5q-103 61 -155 132t-63.5 125t-11.5 105q0 201 136 321t352 120q86 0 166 -22t144.5 -59t111.5 -81v-379q-190 180 -330 180q-55 0 -86 -28.5t-31 -61.5q0 -45 43 -80.5t168 -107.5 q127 -72 212 -160t85 -233q0 -65 -37.5 -161.5t-159 -178.5t-346.5 -82q-167 0 -262 28t-172 68z" />
<glyph unicode="T" horiz-adv-x="1409" d="M43 1059v360h1323v-360h-410v-1059h-503v1059h-410z" />
<glyph unicode="U" horiz-adv-x="1729" d="M104 713v706h504v-616v-35q0 -85 6.5 -153t31 -125t77 -91t141.5 -34q168 0 212 115t44 323v616h504v-706q0 -72 -6 -138.5t-22 -128t-50.5 -127.5t-87.5 -122q-41 -44 -98.5 -84.5t-128.5 -68.5t-166 -44t-205 -16q-380 0 -590 213q-45 47 -75 99.5t-50.5 116.5 t-30.5 136.5t-10 163.5z" />
<glyph unicode="V" horiz-adv-x="1606" d="M20 1419h545l289 -729l272 729h459l-571 -1419h-408z" />
<glyph unicode="W" horiz-adv-x="2384" d="M20 1419h541l197 -602l209 602h452l209 -602l193 602h542l-522 -1419h-379l-270 776l-270 -776h-375z" />
<glyph unicode="X" horiz-adv-x="1757" d="M12 0l561 696l-561 723h631l250 -319l258 319h557l-539 -676l576 -743h-629l-268 346l-281 -346h-555z" />
<glyph unicode="Y" horiz-adv-x="1606" d="M20 1419h605l237 -356l225 356h498l-522 -786v-633h-504v633z" />
<glyph unicode="Z" horiz-adv-x="1518" d="M27 1059v360h1464v-14l-637 -1045h614v-360h-1421l643 1059h-663z" />
<glyph unicode="[" horiz-adv-x="868" d="M106 -494v1913h742v-252h-309v-1409h309v-252h-742z" />
<glyph unicode="\" horiz-adv-x="1024" d="M141 1438h271l471 -1454h-271z" />
<glyph unicode="]" horiz-adv-x="868" d="M20 -242h310v1409h-310v252h742v-1913h-742v252z" />
<glyph unicode="^" horiz-adv-x="1343" d="M125 606l407 813h279l408 -813h-353l-192 492l-195 -492h-354z" />
<glyph unicode="_" horiz-adv-x="1024" d="M-12 -154h1048v-102h-1048v102z" />
<glyph unicode="`" horiz-adv-x="682" d="M-102 1571h450l191 -340h-230z" />
<glyph unicode="a" horiz-adv-x="1194" d="M55 223q0 205 330 309q50 17 88.5 29t65 21.5t48 19t52.5 23.5v30q0 51 -16.5 75t-85.5 24q-187 0 -451 -213v374q71 55 129 91t120 61.5t131.5 39t145.5 13.5q157 0 255 -52t147 -122q40 -57 51.5 -124.5t11.5 -135.5v-260q0 -40 4 -69t13 -46t29 -25.5t49 -8.5 q10 0 36 2l-102 -299h-94q-91 0 -150 13t-91 33t-54 42q-51 -28 -90.5 -45.5t-99.5 -30t-130 -12.5q-152 0 -228 50t-95 102.5t-19 90.5zM438 268q0 -46 30.5 -71t70.5 -25t108 37q-8 27 -8 86v141q-133 -64 -167 -89t-34 -79z" />
<glyph unicode="b" horiz-adv-x="1362" d="M104 0v1438h439v-361q114 43 221 43q104 0 203 -41.5t175 -118t119.5 -182.5t43.5 -227q0 -139 -49.5 -243t-120.5 -167.5t-138 -93.5q-54 -24 -127.5 -35.5t-220.5 -11.5h-545zM543 369q66 -11 94 -11q89 0 140 32.5t70 78.5t19 90q0 85 -54 142t-163 57q-46 0 -106 -15 v-374z" />
<glyph unicode="c" horiz-adv-x="1047" d="M57 551q0 91 35 190.5t110.5 186t196.5 139.5t283 53q97 0 172 -15t137 -36v-373q-114 66 -231 66q-70 0 -131 -27t-97 -75t-36 -109q0 -83 69 -144t193 -61q66 0 110 12t131 48v-361q-35 -15 -74 -28.5t-101 -25t-142 -11.5q-186 0 -328 79.5t-219.5 211.5t-77.5 280z " />
<glyph unicode="d" horiz-adv-x="1362" d="M57 580q0 155 70 278.5t198.5 192.5t292.5 69q102 0 201 -30v348h438v-1438h-518q-116 0 -209 13.5t-173.5 53t-147.5 113.5q-76 85 -114 188.5t-38 211.5zM496 559q0 -92 60 -146.5t151 -54.5q28 0 112 15v362q-50 27 -125 27q-55 0 -101.5 -26.5t-71.5 -73.5t-25 -103z " />
<glyph unicode="e" horiz-adv-x="1200" d="M57 559q0 127 43 230.5t120 177.5t176.5 113.5t211.5 39.5q134 0 242.5 -55t177 -141t94.5 -181q24 -95 24 -208q0 -16 -0.5 -25.5t-0.5 -20.5h-666q9 -76 45 -122q72 -93 240 -93q116 0 206.5 28t174.5 67v-287q-70 -30 -129.5 -50.5t-146.5 -36t-195 -15.5 q-163 0 -284 54t-193 139.5t-106 186.5t-34 199zM479 662h269q-1 107 -43.5 145.5t-92.5 38.5q-73 0 -102 -55.5t-31 -128.5z" />
<glyph unicode="f" horiz-adv-x="868" d="M45 688v275h148q0 120 23 218t120 177.5t297 79.5q98 0 190 -25v-285q-54 17 -86 17q-23 0 -51 -13t-45 -55q-10 -26 -10 -114h162v-275h-162v-688h-438v688h-148z" />
<glyph unicode="g" horiz-adv-x="1194" d="M35 -233q0 167 276 233q-118 47 -118 139q0 48 38.5 93t100.5 77q-98 49 -176 131t-78 240q0 142 75.5 235.5t157.5 139.5q119 65 359 65h487v-235h-153q29 -46 47 -90.5t18 -110.5q0 -241 -256 -365q-116 -56 -145 -75t-29 -51q0 -24 19.5 -35t105.5 -31 q121 -27 182 -47.5t107 -63.5q75 -66 75 -170q0 -83 -56.5 -160t-189 -128.5t-347.5 -51.5q-267 0 -383.5 80.5t-116.5 180.5zM410 -221q0 -32 37.5 -68.5t138.5 -36.5q62 0 109.5 25t47.5 74q0 55 -94 84q-22 7 -80 20.5t-69 16.5q-41 -25 -65.5 -50t-24.5 -65zM428 696 q0 -66 44.5 -106.5t105.5 -40.5q58 0 102.5 40.5t44.5 104.5q0 63 -45 102.5t-111 39.5q-63 0 -102 -41.5t-39 -98.5z" />
<glyph unicode="h" horiz-adv-x="1346" d="M104 0v1438h439v-480q77 71 151 112.5t180 41.5q133 0 220.5 -74t124.5 -180q34 -96 34 -274v-584h-438v543q0 64 -6 105.5t-31.5 71.5t-79.5 30q-84 0 -155 -109v-641h-439z" />
<glyph unicode="i" horiz-adv-x="690" d="M127 0v1100h438v-1100h-438zM236 1305q0 56 40.5 96.5t100.5 40.5t96.5 -42t36.5 -93q0 -59 -40.5 -99.5t-96.5 -40.5q-55 0 -96 41t-41 97z" />
<glyph unicode="j" horiz-adv-x="678" d="M-76 -162q125 4 157 67t32 193v1002h438v-1137q0 -79 -8.5 -140t-44.5 -128t-109 -119q-60 -43 -128.5 -56.5t-125.5 -13.5zM223 1305q0 56 41.5 96.5t100.5 40.5q60 0 96.5 -42t36.5 -93q0 -59 -40.5 -99.5t-97.5 -40.5q-55 0 -96 41t-41 97z" />
<glyph unicode="k" horiz-adv-x="1477" d="M104 0v1438h439v-701l317 363h522l-411 -465l483 -635h-539l-372 485v-485h-439z" />
<glyph unicode="l" horiz-adv-x="690" d="M127 0v1419h438v-1419h-438z" />
<glyph unicode="m" horiz-adv-x="2054" d="M100 0v1100h439v-162q64 81 150 128.5t181 47.5q51 0 113 -19t117 -61.5t86 -105.5q106 94 188 140t199 46q93 0 163.5 -36t110.5 -83.5t64 -99.5q30 -67 37.5 -139t7.5 -156v-600h-438v543q0 64 -6 106.5t-32 73.5t-81 31q-49 0 -81 -20.5t-71 -59.5v-674h-438v528 q0 107 -19.5 166.5t-97.5 59.5q-52 0 -88 -30.5t-65 -68.5v-655h-439z" />
<glyph unicode="n" horiz-adv-x="1346" d="M100 0v1100h439v-154q87 100 177.5 134t157.5 34t133.5 -26t122.5 -84t87 -144q30 -86 30 -291v-569h-438v545q0 93 -19.5 151t-93.5 58q-90 0 -157 -109v-645h-439z" />
<glyph unicode="o" horiz-adv-x="1346" d="M57 551q0 100 41 200t118.5 183.5t193.5 134.5t264 51q144 0 259.5 -49t194.5 -132t119.5 -183t40.5 -203q0 -136 -73 -269.5t-213 -218.5t-330 -85q-191 0 -330.5 85.5t-212 217.5t-72.5 268zM496 549q0 -67 24.5 -115t66 -72t85.5 -24q46 0 87 23.5t66 72t25 115.5 q0 99 -52 156t-126 57q-72 0 -124 -58t-52 -155z" />
<glyph unicode="p" d="M104 -494v1594h439v-88q46 36 81 56.5t85.5 36t117.5 15.5q110 0 200 -47.5t153 -129t96 -183t33 -207.5q0 -147 -62.5 -278t-187.5 -213t-301 -82q-61 0 -109 9t-106 27v-510h-439zM543 381q59 -33 129 -33q86 0 142 61t56 152q0 85 -49 151t-137 66q-61 0 -141 -41 v-356z" />
<glyph unicode="q" horiz-adv-x="1362" d="M55 535q0 119 37 214t93 160t114 101q66 40 141.5 60t135 25t116.5 5h565v-1594h-438v512q-61 -18 -109 -28t-104 -10q-146 0 -274 71t-202.5 198t-74.5 286zM494 539q0 -94 62 -143.5t151 -49.5q16 0 37 2t44.5 5.5t30.5 4.5v373q-43 10 -92 10q-115 0 -178 -59 q-55 -50 -55 -143z" />
<glyph unicode="r" horiz-adv-x="1096" d="M104 0v1100h439v-236q51 103 104.5 157.5t104 73.5t100.5 19q112 0 240 -90l-191 -428q-46 46 -90.5 66t-79.5 20q-188 0 -188 -403v-279h-439z" />
<glyph unicode="s" horiz-adv-x="997" d="M74 72v319q81 -59 156.5 -99t154.5 -40q37 0 64.5 15.5t27.5 47.5q0 38 -30.5 62t-157.5 96q-58 32 -101 66t-77.5 94t-34.5 147q0 96 52.5 173t149.5 122t224 45q111 0 199 -28.5t176 -73.5v-301q-75 58 -140 81t-110 23q-50 0 -78.5 -11.5t-28.5 -43.5q0 -26 11.5 -42 t27.5 -26t73 -40t89 -48q64 -36 106 -72t69.5 -90.5t27.5 -128.5q0 -43 -15 -96t-60.5 -109.5t-137.5 -95t-234 -38.5q-132 0 -218 22.5t-185 69.5z" />
<glyph unicode="t" horiz-adv-x="1085" d="M68 825v168l495 445h99v-338h329v-275h-329v-276q0 -69 7 -108t39 -65t103 -26q98 0 203 72v-334q-40 -30 -89 -54.5t-116 -39t-158 -14.5q-64 0 -137 13t-144.5 56t-111.5 123q-35 71 -35 227v426h-155z" />
<glyph unicode="u" horiz-adv-x="1386" d="M92 489v611h438v-561q0 -101 19 -152t94 -51q40 0 85 27.5t73 64.5v672h438v-664q0 -82 16 -120t80 -38q16 0 35 3l-106 -301h-166q-111 0 -181.5 34.5t-101.5 153.5q-49 -53 -95 -91.5t-115 -67.5t-154 -29q-138 0 -214.5 70t-111.5 163q-23 63 -28 124.5t-5 151.5z" />
<glyph unicode="v" horiz-adv-x="1257" d="M33 1100h456l173 -447l167 447h396l-414 -1100h-356z" />
<glyph unicode="w" horiz-adv-x="1870" d="M33 1100h459l161 -461l166 461h242l166 -461l151 461h459l-399 -1100h-281l-217 547l-211 -547h-280z" />
<glyph unicode="x" horiz-adv-x="1346" d="M23 1100h524l158 -223l157 223h436l-387 -516l412 -584h-524l-162 229l-160 -229h-440l393 524z" />
<glyph unicode="y" horiz-adv-x="1323" d="M51 1100h465l180 -418l193 418h405l-733 -1594h-407l301 652z" />
<glyph unicode="z" horiz-adv-x="1214" d="M27 0l477 760h-424v340h1110v-10l-465 -750h436v-340h-1134z" />
<glyph unicode="{" horiz-adv-x="788" d="M25 297v346q87 0 128.5 33t53.5 90.5t12 157.5q0 150 9.5 237.5t49 151t124.5 94.5t237 31h135v-330q-71 0 -106.5 -10t-53.5 -36.5t-24 -72.5t-8 -145q-1 -131 -24.5 -207.5t-59 -108t-95.5 -57.5q65 -30 101 -66t57 -110.5t21 -214.5q0 -112 13 -161.5t51 -65 t128 -17.5v-330h-127q-204 0 -299 56q-67 40 -99 124t-32 189l4 193q0 147 -55 187t-141 42z" />
<glyph unicode="|" horiz-adv-x="649" d="M180 -494v1932h289v-1932h-289z" />
<glyph unicode="}" horiz-adv-x="788" d="M14 -164q86 2 124 15.5t53.5 60t15.5 154.5q0 139 17 215t53.5 116.5t107.5 73.5q-62 28 -95.5 57.5t-57.5 104.5t-25 211q-2 125 -12.5 174.5t-50 69.5t-130.5 20v330h136q128 0 207 -21.5t126.5 -72t66.5 -130.5t19 -213q0 -114 1.5 -158.5t6 -67t17.5 -48.5 q29 -56 71 -70t99 -14v-346q-87 -2 -142 -42t-55 -187l4 -195q0 -99 -29.5 -185t-107.5 -130q-51 -31 -146 -41.5t-147 -10.5h-127v330z" />
<glyph unicode="~" d="M115 494v290q68 60 148.5 104t187.5 44q49 0 102.5 -13.5t173.5 -72.5q83 -42 134 -58t89 -16q78 0 152 42t149 112v-289q-168 -148 -321 -148q-61 0 -122 18.5t-171 74.5q-73 37 -121 52t-86 15q-158 0 -315 -155z" />
<glyph unicode="&#xa1;" horiz-adv-x="651" d="M66 862q0 64 31 123.5t91 97t138 37.5q70 0 130 -33.5t95 -92.5t35 -132t-43.5 -146t-147.5 -104q185 -362 185 -598q0 -148 -62.5 -248t-179.5 -100q-79 0 -139.5 46t-93.5 129.5t-33 187.5q0 145 51.5 283t134.5 300q-110 34 -151 111t-41 139z" />
<glyph unicode="&#xa2;" horiz-adv-x="1047" d="M57 551q0 91 35 190.5t110.5 186t196.5 139.5t283 53q48 0 117 -6l69 240h150l-80 -269q10 -2 53 -16v-373q-114 66 -231 66q-70 0 -131 -27t-97 -75t-36 -109q0 -83 69 -144t193 -61q66 0 110 12t131 48v-361q-148 -65 -315 -65q-40 0 -74 4l-108 -367h-148l115 393 q-181 57 -296.5 204t-115.5 337z" />
<glyph unicode="&#xa3;" horiz-adv-x="1192" d="M66 0q99 394 167 582h-167v284h258q56 162 127.5 286t190.5 205t294 81q44 0 96 -13l129 -350q-66 12 -112 12q-54 0 -94 -14.5t-71.5 -43.5t-54.5 -69.5t-43 -93.5h189v-284h-279q-34 -100 -65 -236h502l-58 -346h-1009z" />
<glyph unicode="&#xa4;" d="M127 342l139 137q-16 29 -28.5 58.5t-23.5 77.5t-11 102q0 78 18.5 131t44.5 94l-139 139l182 187l142 -142q114 64 231 64q123 0 233 -64l140 142l184 -187l-139 -139q26 -49 43.5 -104t17.5 -131q0 -121 -61 -228l139 -137l-184 -186l-140 139q-110 -64 -239 -64 q-127 0 -225 64l-136 -139zM461 711q0 -60 29.5 -111.5t80.5 -81t111 -29.5t111 29.5t80.5 81t29.5 111.5q0 45 -17 86t-47 71t-71 47t-86 17q-60 0 -111 -29.5t-80.5 -80.5t-29.5 -111z" />
<glyph unicode="&#xa5;" horiz-adv-x="1606" d="M20 1419h605l237 -356l225 356h498l-430 -649h330v-137h-422v-168h422v-137h-422v-328h-504v328h-434v137h434v168h-434v137h340z" />
<glyph unicode="&#xa6;" horiz-adv-x="649" d="M180 342h289v-836h-289v836zM180 602v836h289v-836h-289z" />
<glyph unicode="&#xa7;" horiz-adv-x="1300" d="M57 551q0 125 48.5 204t111.5 134q-33 51 -50 94t-17 113q0 183 143.5 262.5t353.5 79.5q170 0 283.5 -44.5t165 -110.5t51.5 -128q0 -50 -24 -84t-62 -50.5t-84 -16.5q-21 0 -57 7.5t-72.5 34t-48.5 76.5q-11 50 -38 75.5t-106 25.5q-80 0 -123 -27.5t-43 -71.5 q0 -37 26 -64.5t75 -51t225 -99.5q206 -86 317 -195t111 -296q0 -103 -38 -195t-113 -155q67 -90 67 -201q0 -84 -38.5 -153.5t-94.5 -108.5q-69 -48 -164 -73.5t-239 -25.5q-159 0 -268 40.5t-160.5 102.5t-51.5 126q0 66 51 111.5t142 45.5t123.5 -33.5t50.5 -97.5 q11 -37 37.5 -58.5t97.5 -21.5q61 0 116.5 18.5t55.5 86.5q0 51 -46 83.5t-128 67.5q-196 84 -289.5 131.5t-153.5 105t-104 153.5q-39 89 -39 184zM354 631q0 -81 68 -133.5t174 -102.5q182 -80 229 -103.5t101 -64.5q32 70 32 105q0 55 -45.5 100.5t-114 81t-204.5 96.5 q-112 49 -207 109q-33 -49 -33 -88z" />
<glyph unicode="&#xa8;" horiz-adv-x="682" d="M-61 1378q0 61 42.5 104.5t104.5 43.5t104.5 -43.5t42.5 -104.5q0 -62 -42.5 -104.5t-104.5 -42.5q-61 0 -104 43t-43 104zM449 1378q0 60 43 104t104 44q63 0 105 -43t42 -105q0 -63 -42 -105t-105 -42q-61 0 -104 43t-43 104z" />
<glyph unicode="&#xa9;" horiz-adv-x="1642" d="M57 674q0 157 59.5 296.5t166.5 246t246 164t292 57.5q155 0 294 -58t245 -163.5t165.5 -244.5t59.5 -298q0 -206 -102.5 -382.5t-279 -279t-382.5 -102.5t-382.5 102.5t-279 279t-102.5 382.5zM205 674q0 -168 83 -309.5t225 -224.5t308 -83t308.5 83t225.5 225.5 t83 308.5t-83 308.5t-225.5 225t-308.5 82.5q-165 0 -307.5 -82.5t-225.5 -225t-83 -308.5zM410 676q0 124 55 221.5t150.5 151t211.5 53.5q82 0 159 -29.5t133.5 -91.5t76.5 -156l-197 -30q-38 161 -182 161q-92 0 -138 -76.5t-46 -199.5q0 -109 34 -200t152 -91 q138 0 180 191l205 -50q-19 -62 -53.5 -122.5t-115 -112t-210.5 -51.5q-131 0 -225.5 58.5t-142 158t-47.5 215.5z" />
<glyph unicode="&#xaa;" horiz-adv-x="780" d="M27 885q0 134 217 198l162 50v22q0 23 -12 32t-58 9q-69 0 -150.5 -39t-138.5 -80v258q49 36 96 58t105 33.5t133 11.5q330 0 330 -273v-159q0 -43 9 -59.5t46 -16.5q-5 0 37 4l-78 -209h-70q-81 0 -122 14.5t-68 36.5q-89 -51 -209 -51q-95 0 -162 40t-67 120zM299 911 q0 -20 17 -31.5t36 -11.5q21 0 54 17v104q-65 -23 -86 -37.5t-21 -40.5z" />
<glyph unicode="&#xab;" horiz-adv-x="1346" d="M35 551l313 549h381l-315 -549l315 -551h-381zM623 551l313 549h381l-316 -549l316 -551h-381z" />
<glyph unicode="&#xac;" d="M115 811v285h1136v-770h-284v485h-852z" />
<glyph unicode="&#xad;" horiz-adv-x="911" d="M55 377v371h801v-371h-801z" />
<glyph unicode="&#xae;" horiz-adv-x="1642" d="M57 674q0 157 59.5 296.5t166.5 246t246 164t292 57.5q155 0 294 -58t245 -163.5t165.5 -244.5t59.5 -298q0 -206 -102.5 -382.5t-279 -279t-382.5 -102.5t-382.5 102.5t-279 279t-102.5 382.5zM205 674q0 -168 83 -309.5t225 -224.5t308 -83t308.5 83t225.5 225.5 t83 308.5t-83 308.5t-225.5 225t-308.5 82.5q-165 0 -307.5 -82.5t-225.5 -225t-83 -308.5zM475 262v813h289q128 0 185.5 -8t99.5 -41q41 -30 63.5 -78t22.5 -102q0 -80 -53 -146t-167 -84q53 -20 83 -54t89 -138l97 -162h-205l-68 131q-69 136 -117.5 169.5t-121.5 33.5 h-31v-334h-166zM641 723h66q133 0 172 10q79 25 79 103q0 56 -47 88q-24 17 -51 20.5t-105 3.5h-48h-66v-225z" />
<glyph unicode="&#xaf;" horiz-adv-x="1024" d="M-12 1573v102h1048v-102h-1048z" />
<glyph unicode="&#xb0;" horiz-adv-x="811" d="M121 1135q0 77 38 142.5t104 103.5t143 38t143 -38.5t104.5 -103.5t38.5 -142q0 -78 -39 -143.5t-104.5 -104.5t-142.5 -39q-78 0 -143 38.5t-103.5 105t-38.5 143.5zM305 1135q0 -41 31 -72t72 -31t70.5 30.5t29.5 72.5q0 20 -8 39t-21 32t-32 21t-39 8 q-42 0 -72.5 -29.5t-30.5 -70.5z" />
<glyph unicode="&#xb1;" d="M115 -63v284h1136v-284h-1136zM115 745v285h426v426h284v-426h426v-285h-426v-426h-284v426h-426z" />
<glyph unicode="&#xb2;" horiz-adv-x="932" d="M106 696q126 123 197 197.5t109.5 134.5t38.5 107q0 36 -28.5 62t-82.5 26q-46 0 -82.5 -22t-91.5 -77v217q71 51 126.5 74t141.5 23q96 0 161.5 -33t98.5 -88.5t33 -120.5q0 -142 -154 -299h230v-201h-697z" />
<glyph unicode="&#xb3;" horiz-adv-x="932" d="M190 745v205q16 -12 38.5 -27.5t54 -27.5t67.5 -12q34 0 57 14t23 37q0 16 -19.5 33.5t-72.5 17.5q-31 0 -84 -12v186q20 -2 52 -2q116 0 116 51q0 23 -23.5 38.5t-54.5 15.5q-54 0 -86.5 -21.5t-67.5 -60.5v211q11 5 34 15t46.5 16.5t56.5 11t76 4.5q119 0 189 -36 t97.5 -83.5t27.5 -93.5q0 -57 -23.5 -88.5t-64.5 -59.5q104 -62 104 -164q0 -41 -20 -83t-56 -74q-79 -68 -217 -68q-143 0 -250 57z" />
<glyph unicode="&#xb4;" horiz-adv-x="682" d="M143 1231l191 340h450l-411 -340h-230z" />
<glyph unicode="&#xb5;" d="M92 -401v1501h438v-574q0 -65 3 -99.5t17 -62.5t41.5 -42.5t74.5 -14.5q84 0 109.5 56t25.5 176v561h438v-1100h-395v84q-67 -109 -168 -109q-107 0 -166 109v-485h-418z" />
<glyph unicode="&#xb6;" horiz-adv-x="1174" d="M-2 1001q0 102 41 198.5t123 146.5q58 35 110.5 50.5t105.5 19t154 3.5h639v-260h-112v-1608h-242v1608h-184v-1608h-242v1047q-160 12 -247.5 83t-116.5 157.5t-29 162.5z" />
<glyph unicode="&#xb7;" horiz-adv-x="651" d="M68 711q0 70 35 129.5t95 94t128 34.5q107 0 182.5 -74.5t75.5 -183.5q0 -108 -76 -183t-182 -75q-68 0 -128 34.5t-95 94t-35 129.5z" />
<glyph unicode="&#xb8;" horiz-adv-x="682" d="M0 -322q14 0 24.5 -0.5t22.5 -0.5q176 0 176 83q0 70 -121 70l136 174l213 12l-58 -86q109 -8 161 -61t52 -125q0 -142 -133.5 -190t-261.5 -48q-106 0 -211 11v161z" />
<glyph unicode="&#xb9;" horiz-adv-x="932" d="M188 1051v225q45 25 83.5 50t83 55.5t81.5 56.5h191v-742h-303v432q-22 -11 -78 -43.5t-58 -33.5z" />
<glyph unicode="&#xba;" horiz-adv-x="868" d="M23 1079q0 84 48.5 168t141.5 137.5t221 53.5q127 0 221 -53t142.5 -136.5t48.5 -169.5q0 -85 -48.5 -167.5t-143 -134.5t-220.5 -52q-128 0 -221.5 53t-141.5 136t-48 165zM332 1081q0 -52 30 -82t72 -30q43 0 73 28.5t30 83.5t-30 84t-73 29q-42 0 -72 -30t-30 -83z " />
<glyph unicode="&#xbb;" horiz-adv-x="1346" d="M29 0l315 549l-315 551h381l313 -551l-313 -549h-381zM616 0l316 549l-316 551h381l314 -551l-314 -549h-381z" />
<glyph unicode="&#xbc;" horiz-adv-x="2126" d="M188 1051v225q45 25 83.5 50t83 55.5t81.5 56.5h191v-742h-303v432q-22 -11 -78 -43.5t-58 -33.5zM479 -16l832 1454h338l-832 -1454h-338zM1229 145v150l465 446h233v-424h162v-172h-162v-145h-303v145h-395zM1487 317h137v132z" />
<glyph unicode="&#xbd;" horiz-adv-x="2126" d="M188 1051v225q45 25 83.5 50t83 55.5t81.5 56.5h191v-742h-303v432q-22 -11 -78 -43.5t-58 -33.5zM467 -16l831 1454h338l-831 -1454h-338zM1300 0q126 123 197 197.5t109.5 134t38.5 106.5q0 36 -28.5 62t-82.5 26q-46 0 -82 -21t-92 -77v217q71 51 126.5 73.5 t141.5 22.5q140 0 216.5 -69t76.5 -172q0 -92 -43 -160t-111 -139h230v-201h-697z" />
<glyph unicode="&#xbe;" horiz-adv-x="2126" d="M190 745v205q16 -12 38.5 -27.5t54 -27.5t67.5 -12q34 0 57 14t23 37q0 16 -19.5 33.5t-72.5 17.5q-31 0 -84 -12v186q20 -2 52 -2q116 0 116 51q0 23 -23.5 38.5t-54.5 15.5q-54 0 -86.5 -21.5t-67.5 -60.5v211q11 5 34 15t46.5 16.5t56.5 11t76 4.5q119 0 189 -36 t97.5 -83.5t27.5 -93.5q0 -57 -23.5 -88.5t-64.5 -59.5q104 -62 104 -164q0 -41 -20 -83t-56 -74q-79 -68 -217 -68q-143 0 -250 57zM479 -16l832 1454h338l-832 -1454h-338zM1229 145v150l465 446h233v-424h162v-172h-162v-145h-303v145h-395zM1487 317h137v132z" />
<glyph unicode="&#xbf;" horiz-adv-x="803" d="M63 -14q0 140 99 254q125 142 162.5 198.5t37.5 112.5q0 34 -9.5 50.5t-26.5 31.5q-100 31 -143.5 98.5t-43.5 136.5q0 66 33 124t92.5 93t132.5 35q72 0 130.5 -33.5t92 -91t33.5 -129.5q0 -99 -67 -172q-39 -44 -99 -67q27 -43 41.5 -79t14.5 -83q0 -56 -31 -133 q-23 -59 -29 -80t-6 -47q0 -71 51.5 -106.5t112.5 -35.5q36 0 61 5.5t68 17.5l-131 -385q-94 -23 -123.5 -29t-81.5 -6q-111 0 -195.5 41.5t-130 115t-45.5 163.5z" />
<glyph unicode="&#xc0;" horiz-adv-x="1757" d="M16 0l600 1419h527l598 -1419h-518l-80 219h-527l-84 -219h-516zM477 1853h450l191 -340h-230zM721 514h315l-155 438z" />
<glyph unicode="&#xc1;" horiz-adv-x="1757" d="M16 0l600 1419h527l598 -1419h-518l-80 219h-527l-84 -219h-516zM682 1513l191 340h450l-411 -340h-230zM721 514h315l-155 438z" />
<glyph unicode="&#xc2;" horiz-adv-x="1757" d="M16 0l600 1419h527l598 -1419h-518l-80 219h-527l-84 -219h-516zM475 1513l155 348h500l153 -348h-253l-152 164l-152 -164h-251zM721 514h315l-155 438z" />
<glyph unicode="&#xc3;" horiz-adv-x="1757" d="M16 0l600 1419h527l598 -1419h-518l-80 219h-527l-84 -219h-516zM475 1513q18 346 260 346q63 0 145 -33q107 -41 145 -41t52 19t18 53h188q-4 -120 -40 -203q-39 -81 -98.5 -111t-114.5 -30q-34 0 -57 6t-144 45q-67 23 -94 23q-30 0 -48 -17.5t-26 -56.5h-186zM721 514 h315l-155 438z" />
<glyph unicode="&#xc4;" horiz-adv-x="1757" d="M16 0l600 1419h527l598 -1419h-518l-80 219h-527l-84 -219h-516zM477 1660q0 61 42.5 104.5t104.5 43.5t104.5 -43.5t42.5 -104.5q0 -62 -42.5 -104.5t-104.5 -42.5q-61 0 -104 43t-43 104zM721 514h315l-155 438zM987 1660q0 60 43 104t104 44q63 0 105 -43t42 -105 q0 -63 -42 -105t-105 -42q-61 0 -104 43t-43 104z" />
<glyph unicode="&#xc5;" horiz-adv-x="1757" d="M16 0l600 1419h527l598 -1419h-518l-80 219h-527l-84 -219h-516zM671 1720q0 57 28 105t76 76t105 28q58 0 104.5 -28t74.5 -76t28 -105q0 -56 -28 -103.5t-75.5 -75.5t-103.5 -28q-85 0 -147 60t-62 147zM721 514h315l-155 438zM782 1720q0 -41 29 -69t69 -28t68 29 t28 68q0 40 -28 69t-68 29t-69 -29t-29 -69z" />
<glyph unicode="&#xc6;" horiz-adv-x="2157" d="M16 0l680 1419h1401v-319h-534v-221h499v-320h-499v-240h542v-319h-1046v412h-344l-180 -412h-519zM850 717h209v477z" />
<glyph unicode="&#xc7;" horiz-adv-x="1368" d="M55 702q0 115 40 242t130.5 239t246.5 183.5t372 71.5q161 0 270 -28.5t193 -66.5v-423q-81 58 -174 98.5t-213 40.5q-102 0 -174.5 -35t-112.5 -88.5t-57 -112t-17 -108.5q0 -99 48 -178.5t135 -124.5t202 -45q117 0 209 36.5t166 83.5v-387q-82 -37 -135.5 -58 t-111.5 -34t-132 -20l-41 -54q68 -1 116.5 -30t73.5 -71.5t25 -86.5q0 -48 -27.5 -94t-66.5 -72q-53 -34 -128 -54t-208 -20q-93 0 -178 13v166q16 -2 53 -2q80 0 124 22t44 55q0 23 -20.5 48t-87.5 25q-6 0 -10 -0.5t-9 -0.5l127 156q-204 20 -357.5 122.5t-234 257.5 t-80.5 334z" />
<glyph unicode="&#xc8;" horiz-adv-x="1212" d="M119 0v1419h1032v-319h-528v-221h497v-320h-497v-240h538v-319h-1042zM195 1853h450l191 -340h-230z" />
<glyph unicode="&#xc9;" horiz-adv-x="1212" d="M119 0v1419h1032v-319h-528v-221h497v-320h-497v-240h538v-319h-1042zM440 1513l191 340h450l-411 -340h-230z" />
<glyph unicode="&#xca;" horiz-adv-x="1212" d="M119 0v1419h1032v-319h-528v-221h497v-320h-497v-240h538v-319h-1042zM233 1513l155 348h500l153 -348h-253l-152 164l-152 -164h-251z" />
<glyph unicode="&#xcb;" horiz-adv-x="1212" d="M119 0v1419h1032v-319h-528v-221h497v-320h-497v-240h538v-319h-1042zM236 1660q0 61 42.5 104.5t104.5 43.5t104.5 -43.5t42.5 -104.5q0 -62 -42.5 -104.5t-104.5 -42.5q-61 0 -104 43t-43 104zM746 1660q0 60 43 104t104 44q63 0 105 -43t42 -105q0 -63 -42 -105 t-105 -42q-61 0 -104 43t-43 104z" />
<glyph unicode="&#xcc;" horiz-adv-x="784" d="M-51 1853h450l191 -340h-230zM141 0v1419h504v-1419h-504z" />
<glyph unicode="&#xcd;" horiz-adv-x="784" d="M141 0v1419h504v-1419h-504zM195 1513l191 340h450l-411 -340h-230z" />
<glyph unicode="&#xce;" horiz-adv-x="784" d="M-12 1513l155 348h500l153 -348h-253l-152 164l-152 -164h-251zM141 0v1419h504v-1419h-504z" />
<glyph unicode="&#xcf;" horiz-adv-x="784" d="M-10 1660q0 61 42.5 104.5t104.5 43.5t104.5 -43.5t42.5 -104.5q0 -62 -42.5 -104.5t-104.5 -42.5q-61 0 -104 43t-43 104zM141 0v1419h504v-1419h-504zM500 1660q0 60 43 104t104 44q63 0 105 -43t42 -105q0 -63 -42 -105t-105 -42q-61 0 -104 43t-43 104z" />
<glyph unicode="&#xd0;" horiz-adv-x="1612" d="M31 604v213h88v602h610q192 0 340.5 -44t267.5 -154q69 -63 118.5 -145t76.5 -178t27 -202q0 -97 -25 -192.5t-75 -182t-120 -153t-157 -105.5q-88 -38 -191 -50.5t-297 -12.5h-575v604h-88zM623 344h69q91 0 154.5 15.5t111.5 66.5q44 46 70.5 109.5t26.5 169.5 q0 185 -101 288q-51 54 -119 70t-157 16h-55v-262h208v-213h-208v-260z" />
<glyph unicode="&#xd1;" horiz-adv-x="1798" d="M119 0v1419h434l623 -674v674h503v-1419h-438l-618 670v-670h-504zM496 1513q18 346 260 346q63 0 145 -33q107 -41 145 -41t52 19t18 53h188q-4 -120 -40 -203q-39 -81 -98.5 -111t-114.5 -30q-34 0 -57 6t-144 45q-67 23 -94 23q-30 0 -48 -17.5t-26 -56.5h-186z" />
<glyph unicode="&#xd2;" horiz-adv-x="1606" d="M55 711q0 179 82.5 346.5t253 274t412.5 106.5q177 0 316.5 -58.5t235 -159.5t145.5 -233t50 -276q0 -134 -45.5 -261.5t-138.5 -233.5t-235 -169t-328 -63q-172 0 -313.5 59t-238.5 161t-146.5 233.5t-49.5 273.5zM360 1853h450l191 -340h-230zM559 711q0 -82 26.5 -151 t81.5 -111.5t136 -42.5q120 0 182 88.5t62 216.5t-60 216.5t-184 88.5t-184 -89.5t-60 -215.5z" />
<glyph unicode="&#xd3;" horiz-adv-x="1606" d="M55 711q0 179 82.5 346.5t253 274t412.5 106.5q177 0 316.5 -58.5t235 -159.5t145.5 -233t50 -276q0 -134 -45.5 -261.5t-138.5 -233.5t-235 -169t-328 -63q-172 0 -313.5 59t-238.5 161t-146.5 233.5t-49.5 273.5zM559 711q0 -82 26.5 -151t81.5 -111.5t136 -42.5 q120 0 182 88.5t62 216.5t-60 216.5t-184 88.5t-184 -89.5t-60 -215.5zM606 1513l191 340h450l-411 -340h-230z" />
<glyph unicode="&#xd4;" horiz-adv-x="1606" d="M55 711q0 179 82.5 346.5t253 274t412.5 106.5q177 0 316.5 -58.5t235 -159.5t145.5 -233t50 -276q0 -134 -45.5 -261.5t-138.5 -233.5t-235 -169t-328 -63q-172 0 -313.5 59t-238.5 161t-146.5 233.5t-49.5 273.5zM399 1513l155 348h500l153 -348h-253l-152 164 l-152 -164h-251zM559 711q0 -82 26.5 -151t81.5 -111.5t136 -42.5q120 0 182 88.5t62 216.5t-60 216.5t-184 88.5t-184 -89.5t-60 -215.5z" />
<glyph unicode="&#xd5;" horiz-adv-x="1606" d="M55 711q0 179 82.5 346.5t253 274t412.5 106.5q177 0 316.5 -58.5t235 -159.5t145.5 -233t50 -276q0 -134 -45.5 -261.5t-138.5 -233.5t-235 -169t-328 -63q-172 0 -313.5 59t-238.5 161t-146.5 233.5t-49.5 273.5zM399 1513q18 346 260 346q63 0 145 -33 q107 -41 145 -41t52 19t18 53h188q-4 -120 -40 -203q-39 -81 -98.5 -111t-114.5 -30q-34 0 -57 6t-144 45q-67 23 -94 23q-30 0 -48 -17.5t-26 -56.5h-186zM559 711q0 -82 26.5 -151t81.5 -111.5t136 -42.5q120 0 182 88.5t62 216.5t-60 216.5t-184 88.5t-184 -89.5 t-60 -215.5z" />
<glyph unicode="&#xd6;" horiz-adv-x="1606" d="M55 711q0 179 82.5 346.5t253 274t412.5 106.5q177 0 316.5 -58.5t235 -159.5t145.5 -233t50 -276q0 -134 -45.5 -261.5t-138.5 -233.5t-235 -169t-328 -63q-172 0 -313.5 59t-238.5 161t-146.5 233.5t-49.5 273.5zM401 1660q0 61 42.5 104.5t104.5 43.5t104.5 -43.5 t42.5 -104.5q0 -62 -42.5 -104.5t-104.5 -42.5q-61 0 -104 43t-43 104zM559 711q0 -82 26.5 -151t81.5 -111.5t136 -42.5q120 0 182 88.5t62 216.5t-60 216.5t-184 88.5t-184 -89.5t-60 -215.5zM911 1660q0 60 43 104t104 44q63 0 105 -43t42 -105q0 -63 -42 -105t-105 -42 q-61 0 -104 43t-43 104z" />
<glyph unicode="&#xd7;" d="M139 367l342 344l-342 342l201 200l342 -342l344 342l201 -200l-342 -342l342 -344l-201 -201l-344 342l-342 -342z" />
<glyph unicode="&#xd8;" horiz-adv-x="1606" d="M27 53l190 189q-77 102 -119.5 218.5t-42.5 254.5q1 154 54.5 286t151.5 230t236 152.5t306 54.5q154 0 264 -39.5t209 -110.5l151 150l117 -107l-155 -153q65 -77 113 -196.5t48 -274.5q0 -148 -51 -279.5t-149.5 -231.5t-237 -156t-309.5 -56q-273 0 -473 149 l-195 -192zM559 711q0 -36 2.5 -57.5t7 -39t4.5 -20.5l377 373q-65 49 -143 49q-128 0 -188 -92t-60 -213zM657 457q51 -51 146 -51q127 0 185.5 92t58.5 213q0 29 -17 112z" />
<glyph unicode="&#xd9;" horiz-adv-x="1729" d="M104 713v706h504v-616v-35q0 -85 6.5 -153t31 -125t77 -91t141.5 -34q168 0 212 115t44 323v616h504v-706q0 -72 -6 -138.5t-22 -128t-50.5 -127.5t-87.5 -122q-41 -44 -98.5 -84.5t-128.5 -68.5t-166 -44t-205 -16q-380 0 -590 213q-45 47 -75 99.5t-50.5 116.5 t-30.5 136.5t-10 163.5zM422 1853h450l191 -340h-230z" />
<glyph unicode="&#xda;" horiz-adv-x="1729" d="M104 713v706h504v-616v-35q0 -85 6.5 -153t31 -125t77 -91t141.5 -34q168 0 212 115t44 323v616h504v-706q0 -72 -6 -138.5t-22 -128t-50.5 -127.5t-87.5 -122q-41 -44 -98.5 -84.5t-128.5 -68.5t-166 -44t-205 -16q-380 0 -590 213q-45 47 -75 99.5t-50.5 116.5 t-30.5 136.5t-10 163.5zM668 1513l191 340h450l-411 -340h-230z" />
<glyph unicode="&#xdb;" horiz-adv-x="1729" d="M104 713v706h504v-616v-35q0 -85 6.5 -153t31 -125t77 -91t141.5 -34q168 0 212 115t44 323v616h504v-706q0 -72 -6 -138.5t-22 -128t-50.5 -127.5t-87.5 -122q-41 -44 -98.5 -84.5t-128.5 -68.5t-166 -44t-205 -16q-380 0 -590 213q-45 47 -75 99.5t-50.5 116.5 t-30.5 136.5t-10 163.5zM461 1513l155 348h500l153 -348h-253l-152 164l-152 -164h-251z" />
<glyph unicode="&#xdc;" horiz-adv-x="1729" d="M104 713v706h504v-616v-35q0 -85 6.5 -153t31 -125t77 -91t141.5 -34q168 0 212 115t44 323v616h504v-706q0 -72 -6 -138.5t-22 -128t-50.5 -127.5t-87.5 -122q-41 -44 -98.5 -84.5t-128.5 -68.5t-166 -44t-205 -16q-380 0 -590 213q-45 47 -75 99.5t-50.5 116.5 t-30.5 136.5t-10 163.5zM463 1660q0 61 42.5 104.5t104.5 43.5t104.5 -43.5t42.5 -104.5q0 -62 -42.5 -104.5t-104.5 -42.5q-61 0 -104 43t-43 104zM973 1660q0 60 43 104t104 44q63 0 105 -43t42 -105q0 -63 -42 -105t-105 -42q-61 0 -104 43t-43 104z" />
<glyph unicode="&#xdd;" horiz-adv-x="1606" d="M20 1419h605l237 -356l225 356h498l-522 -786v-633h-504v633zM606 1513l191 340h450l-411 -340h-230z" />
<glyph unicode="&#xde;" horiz-adv-x="1430" d="M119 0v1419h504v-256h180q108 0 205 -17.5t188 -82.5q176 -125 176 -356q0 -120 -56 -210.5t-139 -145.5t-163 -70q-124 -25 -258 -25h-133v-256h-504zM623 547h47q95 0 156 29t61 135q0 103 -57 131t-142 28h-65v-323z" />
<glyph unicode="&#xdf;" horiz-adv-x="1391" d="M104 0v948q0 112 19 191.5t94 150.5q50 46 106.5 77.5t143 51t207.5 19.5q235 0 379 -78q81 -44 134.5 -122.5t53.5 -170.5q0 -102 -72 -184q-34 -41 -104 -70q101 -30 159 -92t80.5 -137.5t22.5 -153.5q0 -136 -56.5 -239t-155.5 -157t-226 -54q-91 0 -209 20v336 q20 -2 35.5 -4t27.5 -2q84 0 120 48.5t36 119.5q0 102 -52.5 137.5t-121.5 35.5q-12 0 -18 -0.5t-13 -0.5v268q81 0 111.5 39.5t30.5 89.5q0 65 -39 104t-105 39q-99 0 -124 -63t-25 -176v-971h-439z" />
<glyph unicode="&#xe0;" horiz-adv-x="1194" d="M55 223q0 205 330 309q50 17 88.5 29t65 21.5t48 19t52.5 23.5v30q0 51 -16.5 75t-85.5 24q-187 0 -451 -213v374q71 55 129 91t120 61.5t131.5 39t145.5 13.5q157 0 255 -52t147 -122q40 -57 51.5 -124.5t11.5 -135.5v-260q0 -40 4 -69t13 -46t29 -25.5t49 -8.5 q10 0 36 2l-102 -299h-94q-91 0 -150 13t-91 33t-54 42q-51 -28 -90.5 -45.5t-99.5 -30t-130 -12.5q-152 0 -228 50t-95 102.5t-19 90.5zM154 1571h450l191 -340h-230zM438 268q0 -46 30.5 -71t70.5 -25t108 37q-8 27 -8 86v141q-133 -64 -167 -89t-34 -79z" />
<glyph unicode="&#xe1;" horiz-adv-x="1194" d="M55 223q0 205 330 309q50 17 88.5 29t65 21.5t48 19t52.5 23.5v30q0 51 -16.5 75t-85.5 24q-187 0 -451 -213v374q71 55 129 91t120 61.5t131.5 39t145.5 13.5q157 0 255 -52t147 -122q40 -57 51.5 -124.5t11.5 -135.5v-260q0 -40 4 -69t13 -46t29 -25.5t49 -8.5 q10 0 36 2l-102 -299h-94q-91 0 -150 13t-91 33t-54 42q-51 -28 -90.5 -45.5t-99.5 -30t-130 -12.5q-152 0 -228 50t-95 102.5t-19 90.5zM430 1231l191 340h450l-411 -340h-230zM438 268q0 -46 30.5 -71t70.5 -25t108 37q-8 27 -8 86v141q-133 -64 -167 -89t-34 -79z" />
<glyph unicode="&#xe2;" horiz-adv-x="1194" d="M55 223q0 205 330 309q50 17 88.5 29t65 21.5t48 19t52.5 23.5v30q0 51 -16.5 75t-85.5 24q-187 0 -451 -213v374q71 55 129 91t120 61.5t131.5 39t145.5 13.5q157 0 255 -52t147 -122q40 -57 51.5 -124.5t11.5 -135.5v-260q0 -40 4 -69t13 -46t29 -25.5t49 -8.5 q10 0 36 2l-102 -299h-94q-91 0 -150 13t-91 33t-54 42q-51 -28 -90.5 -45.5t-99.5 -30t-130 -12.5q-152 0 -228 50t-95 102.5t-19 90.5zM193 1231l155 348h500l153 -348h-253l-152 164l-152 -164h-251zM438 268q0 -46 30.5 -71t70.5 -25t108 37q-8 27 -8 86v141 q-133 -64 -167 -89t-34 -79z" />
<glyph unicode="&#xe3;" horiz-adv-x="1194" d="M55 223q0 205 330 309q50 17 88.5 29t65 21.5t48 19t52.5 23.5v30q0 51 -16.5 75t-85.5 24q-187 0 -451 -213v374q71 55 129 91t120 61.5t131.5 39t145.5 13.5q157 0 255 -52t147 -122q40 -57 51.5 -124.5t11.5 -135.5v-260q0 -40 4 -69t13 -46t29 -25.5t49 -8.5 q10 0 36 2l-102 -299h-94q-91 0 -150 13t-91 33t-54 42q-51 -28 -90.5 -45.5t-99.5 -30t-130 -12.5q-152 0 -228 50t-95 102.5t-19 90.5zM193 1231q18 346 260 346q63 0 145 -33q107 -41 145 -41t52 19t18 53h188q-4 -120 -40 -203q-39 -81 -98.5 -111t-114.5 -30 q-34 0 -57 6t-144 45q-67 23 -94 23q-30 0 -48 -17.5t-26 -56.5h-186zM438 268q0 -46 30.5 -71t70.5 -25t108 37q-8 27 -8 86v141q-133 -64 -167 -89t-34 -79z" />
<glyph unicode="&#xe4;" horiz-adv-x="1194" d="M55 223q0 205 330 309q50 17 88.5 29t65 21.5t48 19t52.5 23.5v30q0 51 -16.5 75t-85.5 24q-187 0 -451 -213v374q71 55 129 91t120 61.5t131.5 39t145.5 13.5q157 0 255 -52t147 -122q40 -57 51.5 -124.5t11.5 -135.5v-260q0 -40 4 -69t13 -46t29 -25.5t49 -8.5 q10 0 36 2l-102 -299h-94q-91 0 -150 13t-91 33t-54 42q-51 -28 -90.5 -45.5t-99.5 -30t-130 -12.5q-152 0 -228 50t-95 102.5t-19 90.5zM195 1378q0 61 42.5 104.5t104.5 43.5t104.5 -43.5t42.5 -104.5q0 -62 -42.5 -104.5t-104.5 -42.5q-61 0 -104 43t-43 104zM438 268 q0 -46 30.5 -71t70.5 -25t108 37q-8 27 -8 86v141q-133 -64 -167 -89t-34 -79zM705 1378q0 60 43 104t104 44q63 0 105 -43t42 -105q0 -63 -42 -105t-105 -42q-61 0 -104 43t-43 104z" />
<glyph unicode="&#xe5;" horiz-adv-x="1194" d="M55 223q0 205 330 309q50 17 88.5 29t65 21.5t48 19t52.5 23.5v30q0 51 -16.5 75t-85.5 24q-187 0 -451 -213v374q71 55 129 91t120 61.5t131.5 39t145.5 13.5q157 0 255 -52t147 -122q40 -57 51.5 -124.5t11.5 -135.5v-260q0 -40 4 -69t13 -46t29 -25.5t49 -8.5 q10 0 36 2l-102 -299h-94q-91 0 -150 13t-91 33t-54 42q-51 -28 -90.5 -45.5t-99.5 -30t-130 -12.5q-152 0 -228 50t-95 102.5t-19 90.5zM389 1438q0 57 28 105t76 76t105 28q58 0 104.5 -28t74.5 -76t28 -105q0 -56 -28 -103.5t-75.5 -75.5t-103.5 -28q-85 0 -147 60 t-62 147zM438 268q0 -46 30.5 -71t70.5 -25t108 37q-8 27 -8 86v141q-133 -64 -167 -89t-34 -79zM500 1438q0 -41 29 -69t69 -28t68 29t28 68q0 40 -28 69t-68 29t-69 -29t-29 -69z" />
<glyph unicode="&#xe6;" horiz-adv-x="1757" d="M55 225q0 114 83.5 185.5t199.5 109.5q61 21 136.5 46t108.5 38.5t54 24.5q0 72 -17 100.5t-92 28.5q-57 0 -123.5 -20.5t-164.5 -82.5q-79 -50 -156 -112v379q61 51 130.5 93.5t169.5 73.5t214 31q182 0 311 -73q143 73 283 73q101 0 192 -35t163.5 -105.5t114.5 -180.5 t42 -248v-62h-637q2 -51 19 -95t76 -78.5t175 -34.5q90 0 173.5 20t193.5 72v-289q-43 -25 -103 -49t-150.5 -39.5t-215.5 -15.5q-146 0 -254.5 26.5t-204.5 93.5q-177 -120 -389 -120q-143 0 -237.5 63.5t-94.5 181.5zM436 272q0 -46 29 -71t70 -25q46 0 114 37 q-12 47 -12 149v76q-20 -10 -44.5 -21t-50 -23.5t-32.5 -16.5q-74 -40 -74 -105zM1067 662h254q-2 46 -10 86.5t-35 69t-82 28.5q-72 0 -97.5 -51.5t-29.5 -132.5z" />
<glyph unicode="&#xe7;" horiz-adv-x="1047" d="M57 551q0 91 35 190.5t110.5 186t196.5 139.5t283 53q97 0 172 -15t137 -36v-373q-114 66 -231 66q-70 0 -131 -27t-97 -75t-36 -109q0 -83 69 -144t193 -61q66 0 110 12t131 48v-361q-110 -49 -233 -61l-43 -74q57 -11 92 -39q29 -22 46.5 -59t17.5 -78q0 -45 -19 -84 t-66 -72.5t-125 -52.5t-184 -19q-30 1 -55.5 1.5t-46 2t-39.5 3.5v145q12 0 20 -0.5t18 -0.5q159 0 159 85q0 21 -16.5 47t-71.5 27l106 174q-127 17 -242 91t-187.5 196.5t-72.5 273.5z" />
<glyph unicode="&#xe8;" horiz-adv-x="1200" d="M57 559q0 127 43 230.5t120 177.5t176.5 113.5t211.5 39.5q134 0 242.5 -55t177 -141t94.5 -181q24 -95 24 -208q0 -16 -0.5 -25.5t-0.5 -20.5h-666q9 -76 45 -122q72 -93 240 -93q116 0 206.5 28t174.5 67v-287q-70 -30 -129.5 -50.5t-146.5 -36t-195 -15.5 q-163 0 -284 54t-193 139.5t-106 186.5t-34 199zM199 1571h450l191 -340h-230zM479 662h269q-1 107 -43.5 145.5t-92.5 38.5q-73 0 -102 -55.5t-31 -128.5z" />
<glyph unicode="&#xe9;" horiz-adv-x="1200" d="M57 559q0 127 43 230.5t120 177.5t176.5 113.5t211.5 39.5q134 0 242.5 -55t177 -141t94.5 -181q24 -95 24 -208q0 -16 -0.5 -25.5t-0.5 -20.5h-666q9 -76 45 -122q72 -93 240 -93q116 0 206.5 28t174.5 67v-287q-70 -30 -129.5 -50.5t-146.5 -36t-195 -15.5 q-163 0 -284 54t-193 139.5t-106 186.5t-34 199zM403 1231l191 340h450l-411 -340h-230zM479 662h269q-1 107 -43.5 145.5t-92.5 38.5q-73 0 -102 -55.5t-31 -128.5z" />
<glyph unicode="&#xea;" horiz-adv-x="1200" d="M57 559q0 127 43 230.5t120 177.5t176.5 113.5t211.5 39.5q134 0 242.5 -55t177 -141t94.5 -181q24 -95 24 -208q0 -16 -0.5 -25.5t-0.5 -20.5h-666q9 -76 45 -122q72 -93 240 -93q116 0 206.5 28t174.5 67v-287q-70 -30 -129.5 -50.5t-146.5 -36t-195 -15.5 q-163 0 -284 54t-193 139.5t-106 186.5t-34 199zM227 1231l155 348h500l153 -348h-253l-152 164l-152 -164h-251zM479 662h269q-1 107 -43.5 145.5t-92.5 38.5q-73 0 -102 -55.5t-31 -128.5z" />
<glyph unicode="&#xeb;" horiz-adv-x="1200" d="M57 559q0 127 43 230.5t120 177.5t176.5 113.5t211.5 39.5q134 0 242.5 -55t177 -141t94.5 -181q24 -95 24 -208q0 -16 -0.5 -25.5t-0.5 -20.5h-666q9 -76 45 -122q72 -93 240 -93q116 0 206.5 28t174.5 67v-287q-70 -30 -129.5 -50.5t-146.5 -36t-195 -15.5 q-163 0 -284 54t-193 139.5t-106 186.5t-34 199zM229 1378q0 61 42.5 104.5t104.5 43.5t104.5 -43.5t42.5 -104.5q0 -62 -42.5 -104.5t-104.5 -42.5q-61 0 -104 43t-43 104zM479 662h269q-1 107 -43.5 145.5t-92.5 38.5q-73 0 -102 -55.5t-31 -128.5zM739 1378q0 60 43 104 t104 44q63 0 105 -43t42 -105q0 -63 -42 -105t-105 -42q-61 0 -104 43t-43 104z" />
<glyph unicode="&#xec;" horiz-adv-x="690" d="M-98 1571h450l191 -340h-230zM127 0v1100h438v-1100h-438z" />
<glyph unicode="&#xed;" horiz-adv-x="690" d="M127 0v1100h438v-1100h-438zM147 1231l191 340h450l-411 -340h-230z" />
<glyph unicode="&#xee;" horiz-adv-x="690" d="M-59 1231l155 348h500l153 -348h-253l-152 164l-152 -164h-251zM127 0v1100h438v-1100h-438z" />
<glyph unicode="&#xef;" horiz-adv-x="690" d="M-57 1378q0 61 42.5 104.5t104.5 43.5t104.5 -43.5t42.5 -104.5q0 -62 -42.5 -104.5t-104.5 -42.5q-61 0 -104 43t-43 104zM127 0v1100h438v-1100h-438zM453 1378q0 60 43 104t104 44q63 0 105 -43t42 -105q0 -63 -42 -105t-105 -42q-61 0 -104 43t-43 104z" />
<glyph unicode="&#xf0;" horiz-adv-x="1329" d="M57 555q0 152 74.5 269.5t192 182t239.5 64.5q65 0 119 -14q-62 105 -113 164l-325 -58l-21 115l260 45q-12 14 -58.5 56.5t-64.5 58.5h443q19 -14 33.5 -25.5t27.5 -21.5l228 39l20 -115l-139 -23q141 -154 220 -331.5t79 -368.5q0 -129 -40.5 -246.5t-135.5 -212.5 q-72 -73 -165.5 -113t-244.5 -40q-207 0 -350 87t-211 220t-68 268zM496 555q0 -98 49.5 -155.5t128.5 -57.5q88 0 132 66t44 151q0 58 -23.5 105.5t-64.5 74.5t-90 27q-80 0 -128 -63t-48 -148z" />
<glyph unicode="&#xf1;" horiz-adv-x="1346" d="M100 0v1100h439v-154q87 100 177.5 134t157.5 34t133.5 -26t122.5 -84t87 -144q30 -86 30 -291v-569h-438v545q0 93 -19.5 151t-93.5 58q-90 0 -157 -109v-645h-439zM268 1231q18 346 260 346q63 0 145 -33q107 -41 145 -41t52 19t18 53h188q-4 -120 -40 -203 q-39 -81 -98.5 -111t-114.5 -30q-34 0 -57 6t-144 45q-67 23 -94 23q-30 0 -48 -17.5t-26 -56.5h-186z" />
<glyph unicode="&#xf2;" horiz-adv-x="1346" d="M57 551q0 100 41 200t118.5 183.5t193.5 134.5t264 51q144 0 259.5 -49t194.5 -132t119.5 -183t40.5 -203q0 -136 -73 -269.5t-213 -218.5t-330 -85q-191 0 -330.5 85.5t-212 217.5t-72.5 268zM229 1571h450l191 -340h-230zM496 549q0 -67 24.5 -115t66 -72t85.5 -24 q46 0 87 23.5t66 72t25 115.5q0 99 -52 156t-126 57q-72 0 -124 -58t-52 -155z" />
<glyph unicode="&#xf3;" horiz-adv-x="1346" d="M57 551q0 100 41 200t118.5 183.5t193.5 134.5t264 51q144 0 259.5 -49t194.5 -132t119.5 -183t40.5 -203q0 -136 -73 -269.5t-213 -218.5t-330 -85q-191 0 -330.5 85.5t-212 217.5t-72.5 268zM475 1231l191 340h450l-411 -340h-230zM496 549q0 -67 24.5 -115t66 -72 t85.5 -24q46 0 87 23.5t66 72t25 115.5q0 99 -52 156t-126 57q-72 0 -124 -58t-52 -155z" />
<glyph unicode="&#xf4;" horiz-adv-x="1346" d="M57 551q0 100 41 200t118.5 183.5t193.5 134.5t264 51q144 0 259.5 -49t194.5 -132t119.5 -183t40.5 -203q0 -136 -73 -269.5t-213 -218.5t-330 -85q-191 0 -330.5 85.5t-212 217.5t-72.5 268zM268 1231l155 348h500l153 -348h-253l-152 164l-152 -164h-251zM496 549 q0 -67 24.5 -115t66 -72t85.5 -24q46 0 87 23.5t66 72t25 115.5q0 99 -52 156t-126 57q-72 0 -124 -58t-52 -155z" />
<glyph unicode="&#xf5;" horiz-adv-x="1346" d="M57 551q0 100 41 200t118.5 183.5t193.5 134.5t264 51q144 0 259.5 -49t194.5 -132t119.5 -183t40.5 -203q0 -136 -73 -269.5t-213 -218.5t-330 -85q-191 0 -330.5 85.5t-212 217.5t-72.5 268zM268 1231q18 346 260 346q63 0 145 -33q107 -41 145 -41t52 19t18 53h188 q-4 -120 -40 -203q-39 -81 -98.5 -111t-114.5 -30q-34 0 -57 6t-144 45q-67 23 -94 23q-30 0 -48 -17.5t-26 -56.5h-186zM496 549q0 -67 24.5 -115t66 -72t85.5 -24q46 0 87 23.5t66 72t25 115.5q0 99 -52 156t-126 57q-72 0 -124 -58t-52 -155z" />
<glyph unicode="&#xf6;" horiz-adv-x="1346" d="M57 551q0 100 41 200t118.5 183.5t193.5 134.5t264 51q144 0 259.5 -49t194.5 -132t119.5 -183t40.5 -203q0 -136 -73 -269.5t-213 -218.5t-330 -85q-191 0 -330.5 85.5t-212 217.5t-72.5 268zM270 1378q0 61 42.5 104.5t104.5 43.5t104.5 -43.5t42.5 -104.5 q0 -62 -42.5 -104.5t-104.5 -42.5q-61 0 -104 43t-43 104zM496 549q0 -67 24.5 -115t66 -72t85.5 -24q46 0 87 23.5t66 72t25 115.5q0 99 -52 156t-126 57q-72 0 -124 -58t-52 -155zM780 1378q0 60 43 104t104 44q63 0 105 -43t42 -105q0 -63 -42 -105t-105 -42 q-61 0 -104 43t-43 104z" />
<glyph unicode="&#xf7;" d="M115 567v285h1136v-285h-1136zM516 283q0 69 48.5 117.5t117.5 48.5t118.5 -48.5t49.5 -117.5q0 -47 -22.5 -84.5t-61 -60.5t-84.5 -23q-68 0 -117 50t-49 118zM516 1139q0 70 49 118t119 48q36 0 65.5 -12.5t52.5 -35.5t35.5 -52.5t12.5 -65.5q0 -70 -48 -119t-118 -49 t-119 49t-49 119z" />
<glyph unicode="&#xf8;" horiz-adv-x="1346" d="M57 16l150 158q-150 169 -150 377q0 100 41 200t118.5 183.5t193.5 134.5t264 51q193 0 340 -90l157 168l115 -123l-143 -153q74 -83 109.5 -181t35.5 -188q0 -101 -40 -201t-119.5 -185.5t-196.5 -136t-260 -50.5q-120 0 -191 24.5t-145 63.5l-158 -168zM471 551 q0 -44 10 -84l283 297q-35 22 -90 22q-94 0 -148.5 -63.5t-54.5 -171.5zM588 334q36 -21 86 -21t97 27.5t75 82t28 128.5q0 39 -10 76z" />
<glyph unicode="&#xf9;" horiz-adv-x="1386" d="M92 489v611h438v-561q0 -101 19 -152t94 -51q40 0 85 27.5t73 64.5v672h438v-664q0 -82 16 -120t80 -38q16 0 35 3l-106 -301h-166q-111 0 -181.5 34.5t-101.5 153.5q-49 -53 -95 -91.5t-115 -67.5t-154 -29q-138 0 -214.5 70t-111.5 163q-23 63 -28 124.5t-5 151.5z M250 1571h450l191 -340h-230z" />
<glyph unicode="&#xfa;" horiz-adv-x="1386" d="M92 489v611h438v-561q0 -101 19 -152t94 -51q40 0 85 27.5t73 64.5v672h438v-664q0 -82 16 -120t80 -38q16 0 35 3l-106 -301h-166q-111 0 -181.5 34.5t-101.5 153.5q-49 -53 -95 -91.5t-115 -67.5t-154 -29q-138 0 -214.5 70t-111.5 163q-23 63 -28 124.5t-5 151.5z M496 1231l191 340h450l-411 -340h-230z" />
<glyph unicode="&#xfb;" horiz-adv-x="1386" d="M92 489v611h438v-561q0 -101 19 -152t94 -51q40 0 85 27.5t73 64.5v672h438v-664q0 -82 16 -120t80 -38q16 0 35 3l-106 -301h-166q-111 0 -181.5 34.5t-101.5 153.5q-49 -53 -95 -91.5t-115 -67.5t-154 -29q-138 0 -214.5 70t-111.5 163q-23 63 -28 124.5t-5 151.5z M289 1231l155 348h500l153 -348h-253l-152 164l-152 -164h-251z" />
<glyph unicode="&#xfc;" horiz-adv-x="1386" d="M92 489v611h438v-561q0 -101 19 -152t94 -51q40 0 85 27.5t73 64.5v672h438v-664q0 -82 16 -120t80 -38q16 0 35 3l-106 -301h-166q-111 0 -181.5 34.5t-101.5 153.5q-49 -53 -95 -91.5t-115 -67.5t-154 -29q-138 0 -214.5 70t-111.5 163q-23 63 -28 124.5t-5 151.5z M291 1378q0 61 42.5 104.5t104.5 43.5t104.5 -43.5t42.5 -104.5q0 -62 -42.5 -104.5t-104.5 -42.5q-61 0 -104 43t-43 104zM801 1378q0 60 43 104t104 44q63 0 105 -43t42 -105q0 -63 -42 -105t-105 -42q-61 0 -104 43t-43 104z" />
<glyph unicode="&#xfd;" horiz-adv-x="1323" d="M51 1100h465l180 -418l193 418h405l-733 -1594h-407l301 652zM465 1231l191 340h450l-411 -340h-230z" />
<glyph unicode="&#xfe;" d="M104 -494v1932h439v-367q144 49 266 49q121 0 215 -43.5t158 -122.5t95.5 -177t31.5 -212q0 -124 -38.5 -231t-110.5 -187t-173.5 -123.5t-228.5 -43.5q-61 0 -109 9t-106 27v-510h-439zM543 381q59 -33 129 -33q51 0 97.5 26t73.5 76.5t27 116.5q0 104 -56.5 157.5 t-133.5 53.5q-62 0 -137 -35v-362z" />
<glyph unicode="&#xff;" horiz-adv-x="1323" d="M51 1100h465l180 -418l193 418h405l-733 -1594h-407l301 652zM260 1378q0 61 42.5 104.5t104.5 43.5t104.5 -43.5t42.5 -104.5q0 -62 -42.5 -104.5t-104.5 -42.5q-61 0 -104 43t-43 104zM770 1378q0 60 43 104t104 44q63 0 105 -43t42 -105q0 -63 -42 -105t-105 -42 q-61 0 -104 43t-43 104z" />
<glyph unicode="&#x152;" horiz-adv-x="2150" d="M55 713q0 154 49 274.5t122.5 201t152.5 126.5q82 48 178.5 71t172.5 28t151 5h1210v-319h-532v-221h499v-320h-499v-240h540v-319h-1218q-85 0 -157.5 5.5t-158 26t-173.5 67.5t-161 124q-82 92 -129 214.5t-47 275.5zM559 709q0 -172 86.5 -259.5t193 -109t216.5 -21.5 v781h-33q-164 0 -268 -49q-110 -50 -152.5 -148t-42.5 -194z" />
<glyph unicode="&#x153;" horiz-adv-x="2046" d="M57 549q0 119 48.5 226t134.5 183.5t199 119t241 42.5q218 0 377 -129q155 129 377 129q165 0 293 -75.5t197 -207.5t69 -296v-52h-705q12 -130 106 -174.5t205 -44.5q108 0 195 21.5t199 64.5v-288q-77 -27 -139.5 -45t-152.5 -30.5t-194 -12.5q-78 0 -152.5 11.5 t-146.5 40t-137 77.5q-82 -66 -183 -97.5t-210 -31.5q-140 0 -257.5 47.5t-198 128t-123 184t-42.5 209.5zM496 549q0 -67 24.5 -115t66 -72t85.5 -24q46 0 87 23.5t66 72t25 115.5q0 99 -52 156t-126 57q-72 0 -124 -58t-52 -155zM1288 662h299q-6 73 -34 128.5t-113 55.5 q-32 0 -65.5 -13.5t-59.5 -54.5t-27 -116z" />
<glyph unicode="&#x178;" horiz-adv-x="1606" d="M20 1419h605l237 -356l225 356h498l-522 -786v-633h-504v633zM401 1660q0 61 42.5 104.5t104.5 43.5t104.5 -43.5t42.5 -104.5q0 -62 -42.5 -104.5t-104.5 -42.5q-61 0 -104 43t-43 104zM911 1660q0 60 43 104t104 44q63 0 105 -43t42 -105q0 -63 -42 -105t-105 -42 q-61 0 -104 43t-43 104z" />
<glyph unicode="&#x2c6;" horiz-adv-x="682" d="M-63 1231l155 348h500l153 -348h-253l-152 164l-152 -164h-251z" />
<glyph unicode="&#x2dc;" horiz-adv-x="682" d="M-63 1231q18 346 260 346q63 0 145 -33q107 -41 145 -41t52 19t18 53h188q-4 -120 -40 -203q-39 -81 -98.5 -111t-114.5 -30q-34 0 -57 6t-144 45q-67 23 -94 23q-30 0 -48 -17.5t-26 -56.5h-186z" />
<glyph unicode="&#x2000;" horiz-adv-x="964" />
<glyph unicode="&#x2001;" horiz-adv-x="1929" />
<glyph unicode="&#x2002;" horiz-adv-x="964" />
<glyph unicode="&#x2003;" horiz-adv-x="1929" />
<glyph unicode="&#x2004;" horiz-adv-x="643" />
<glyph unicode="&#x2005;" horiz-adv-x="482" />
<glyph unicode="&#x2006;" horiz-adv-x="321" />
<glyph unicode="&#x2007;" horiz-adv-x="321" />
<glyph unicode="&#x2008;" horiz-adv-x="241" />
<glyph unicode="&#x2009;" horiz-adv-x="385" />
<glyph unicode="&#x200a;" horiz-adv-x="107" />
<glyph unicode="&#x2010;" horiz-adv-x="911" d="M55 377v371h801v-371h-801z" />
<glyph unicode="&#x2011;" horiz-adv-x="911" d="M55 377v371h801v-371h-801z" />
<glyph unicode="&#x2012;" horiz-adv-x="911" d="M55 377v371h801v-371h-801z" />
<glyph unicode="&#x2013;" horiz-adv-x="1024" d="M-12 393v338h1048v-338h-1048z" />
<glyph unicode="&#x2014;" horiz-adv-x="2048" d="M-12 393v338h2072v-338h-2072z" />
<glyph unicode="&#x2018;" horiz-adv-x="715" d="M74 942q0 94 36.5 183.5t107.5 159.5t177 110.5t244 40.5h23v-37q-37 -9 -86.5 -37t-96.5 -93.5t-51 -168.5q116 -24 149 -94.5t33 -126.5q0 -102 -73.5 -178t-184.5 -76q-71 0 -135.5 36.5t-103.5 107.5t-39 173z" />
<glyph unicode="&#x2019;" horiz-adv-x="715" d="M53 627v37q37 9 87.5 38t96 94.5t50.5 166.5q-115 24 -149 94.5t-34 126.5q0 64 33.5 123t94 95t130.5 36q72 0 136.5 -37t103.5 -108t39 -173q0 -93 -36.5 -182.5t-106 -158.5t-178 -110.5t-242.5 -41.5h-25z" />
<glyph unicode="&#x201a;" horiz-adv-x="715" d="M53 -297q37 9 86.5 37.5t96 94t51.5 167.5q-116 25 -149.5 95.5t-33.5 125.5q0 64 33.5 123t94 95t130.5 36q72 0 136.5 -36.5t103.5 -107.5t39 -173q0 -93 -36 -182t-107 -159t-179.5 -111.5t-243.5 -41.5h-22v37z" />
<glyph unicode="&#x201c;" horiz-adv-x="1389" d="M76 942q0 94 36.5 183.5t107.5 159.5t177 110.5t244 40.5h23v-37q-37 -9 -86.5 -37t-96.5 -93.5t-51 -168.5q116 -24 149 -94.5t33 -126.5q0 -102 -73.5 -178t-184.5 -76q-71 0 -135.5 36.5t-103.5 107.5t-39 173zM748 942q0 94 36.5 183.5t107.5 159.5t177 110.5 t244 40.5h22v-37q-37 -9 -86.5 -37.5t-96 -93.5t-50.5 -168q116 -24 149 -94.5t33 -126.5q0 -102 -73.5 -178t-184.5 -76q-71 0 -135.5 36.5t-103.5 107.5t-39 173z" />
<glyph unicode="&#x201d;" horiz-adv-x="1389" d="M53 627v37q37 9 87.5 38t96 94.5t50.5 166.5q-115 24 -149 94.5t-34 126.5q0 64 33.5 123t94 95t130.5 36q72 0 136.5 -37t103.5 -108t39 -173q0 -93 -36.5 -182.5t-106 -158.5t-178 -110.5t-242.5 -41.5h-25zM725 627v37q64 14 145.5 83t87.5 216q-114 24 -148 94.5 t-34 126.5q0 64 33.5 123t94 95t130.5 36q72 0 136.5 -37t103.5 -108t39 -173q0 -93 -36.5 -182.5t-106 -158.5t-178 -110.5t-242.5 -41.5h-25z" />
<glyph unicode="&#x201e;" horiz-adv-x="1389" d="M53 -297q37 9 86.5 37.5t96 94t51.5 167.5q-116 25 -149.5 95.5t-33.5 125.5q0 64 33.5 123t94 95t130.5 36q72 0 136.5 -36.5t103.5 -107.5t39 -173q0 -93 -36 -182t-107 -159t-179.5 -111.5t-243.5 -41.5h-22v37zM725 -297q64 14 145.5 84t87.5 215 q-115 25 -148.5 95.5t-33.5 125.5q0 64 33.5 123t94 95t130.5 36q72 0 136.5 -36.5t103.5 -107.5t39 -173q0 -93 -36 -182t-107 -159t-179.5 -111.5t-243.5 -41.5h-22v37z" />
<glyph unicode="&#x2022;" horiz-adv-x="1024" d="M180 711q0 87 44.5 164t121 122t166.5 45t166.5 -45t121 -122t44.5 -164q0 -68 -26 -128.5t-71.5 -106t-106 -71.5t-128.5 -26q-90 0 -166.5 45t-121 122t-44.5 165z" />
<glyph unicode="&#x2026;" horiz-adv-x="2048" d="M82 242q0 70 34.5 129.5t94.5 94t129 34.5q107 0 182.5 -74.5t75.5 -183.5q0 -108 -76 -183t-182 -75q-69 0 -129 34.5t-94.5 94t-34.5 129.5zM766 242q0 70 34.5 129.5t94.5 94t129 34.5q107 0 182.5 -74.5t75.5 -183.5q0 -108 -76 -183t-182 -75q-69 0 -129 34.5 t-94.5 94t-34.5 129.5zM1450 242q0 70 34.5 129.5t94.5 94t129 34.5q107 0 182.5 -74.5t75.5 -183.5q0 -108 -76 -183t-182 -75q-69 0 -129 34.5t-94.5 94t-34.5 129.5z" />
<glyph unicode="&#x202f;" horiz-adv-x="385" />
<glyph unicode="&#x2039;" horiz-adv-x="758" d="M35 551l313 549h381l-315 -549l315 -551h-381z" />
<glyph unicode="&#x203a;" horiz-adv-x="758" d="M29 0l315 549l-315 551h381l313 -551l-313 -549h-381z" />
<glyph unicode="&#x205f;" horiz-adv-x="482" />
<glyph unicode="&#x20ac;" horiz-adv-x="1509" d="M14 518l21 137h125q-2 17 -2 47q0 43 2 66h-146l21 137h147q35 140 120 260t241 196.5t379 76.5q266 0 462 -74v-399q-154 100 -387 100q-216 0 -311 -160h627l-21 -137h-655q-4 -36 -4 -53q0 -22 4 -60h635l-21 -137h-559q49 -73 135.5 -117.5t194.5 -44.5 q119 0 214 30.5t161 70.5v-377q-83 -41 -204.5 -68.5t-281.5 -27.5q-204 0 -357.5 71.5t-245.5 192t-128 270.5h-166z" />
<glyph unicode="&#x2122;" horiz-adv-x="1942" d="M37 1227v192h801v-192h-285v-621h-236v621h-280zM930 606v813h356l113 -444l119 444h348v-813h-224v576l-153 -576h-184l-152 576v-576h-223z" />
<glyph unicode="&#x25fc;" horiz-adv-x="1100" d="M0 0v1100h1100v-1100h-1100z" />
</font>
</defs>
</svg>
